<svg xmlns="http://www.w3.org/2000/svg" width="1280" height="360" viewBox="0 0 1280 360" role="img" aria-labelledby="title desc">
  <title id="title">OpenOcti — the open-source Command Center</title>
  <desc id="desc">A dark navy OpenOcti banner with a cyan octopus mark.</desc>
  <defs>
    <linearGradient id="bg" x1="0" y1="0" x2="1" y2="1"><stop stop-color="#001040"/><stop offset="1" stop-color="#000010"/></linearGradient>
    <radialGradient id="glow"><stop stop-color="#30c0f0" stop-opacity=".28"/><stop offset="1" stop-color="#30c0f0" stop-opacity="0"/></radialGradient>
  </defs>
  <rect width="1280" height="360" rx="28" fill="url(#bg)"/>
  <path d="M0 334h1280" stroke="#0070d0" stroke-width="6"/>
  <circle cx="1045" cy="170" r="260" fill="url(#glow)"/>
  <g transform="translate(100 74)" fill="none" stroke="#30c0f0" stroke-width="18" stroke-linecap="round" stroke-linejoin="round">
    <path d="M72 86c0-43 34-76 78-76s78 33 78 76v44c0 30-20 51-47 51-18 0-31-8-39-22-9 16-22 24-40 24-27 0-48-20-48-48"/>
    <path d="M55 118c-28 2-42 21-38 47 4 25 24 40 48 32"/>
    <path d="M94 158c-9 32 5 55 31 58 22 3 38-9 44-29"/>
    <path d="M180 159c9 30 30 42 54 31 22-10 29-31 18-53"/>
    <circle cx="125" cy="78" r="5" fill="#fff" stroke="none"/><circle cx="174" cy="78" r="5" fill="#fff" stroke="none"/>
  </g>
  <text x="410" y="154" fill="#fff" font-family="Space Grotesk,Segoe UI,sans-serif" font-size="76" font-weight="700" letter-spacing="2">OPENOCTI</text>
  <text x="414" y="215" fill="#30c0f0" font-family="Space Grotesk,Segoe UI,sans-serif" font-size="31" font-weight="600">the open-source Command Center</text>
  <text x="415" y="265" fill="#8ba0c4" font-family="Segoe UI,sans-serif" font-size="20">CRM · AI staff · voice · documents · e-sign · your server</text>
</svg>
