<svg xmlns="http://www.w3.org/2000/svg" viewBox="0 0 1024 1024" role="img" aria-label="Vera avatar">
  <defs>
    <linearGradient id="bg" x1="0" y1="0" x2="1" y2="1">
      <stop offset="0" stop-color="#243b53"/>
      <stop offset="1" stop-color="#7c2d12"/>
    </linearGradient>
    <linearGradient id="skin" x1="0" y1="0" x2="0" y2="1">
      <stop offset="0" stop-color="#e0b089"/>
      <stop offset="1" stop-color="#bd865e"/>
    </linearGradient>
  </defs>
  <rect width="1024" height="1024" rx="220" fill="url(#bg)"/>
  <path d="M324 390c0-142 80-226 190-226s186 84 186 226c0 106-376 106-376 0z" fill="#3f2f2f"/>
  <circle cx="512" cy="380" r="150" fill="url(#skin)"/>
  <path d="M306 862c42-184 144-276 206-276s164 92 206 276H306z" fill="#111827"/>
  <path d="M398 862c28-108 66-164 114-164s86 56 114 164H398z" fill="#e5e7eb"/>
  <text x="512" y="915" text-anchor="middle" font-family="Arial, Helvetica, sans-serif" font-size="72" font-weight="800" fill="#ffffff">Vera</text>
</svg>
